<?xml version="1.0" encoding="utf-8"?>
<!-- Generator: Adobe Illustrator 16.0.4, SVG Export Plug-In . SVG Version: 6.00 Build 0)  -->
<!DOCTYPE svg PUBLIC "-//W3C//DTD SVG 1.1//EN" "http://www.w3.org/Graphics/SVG/1.1/DTD/svg11.dtd">
<svg version="1.1" id="Ebene_1" xmlns="http://www.w3.org/2000/svg" xmlns:xlink="http://www.w3.org/1999/xlink" x="0px" y="0px"
	 width="500px" height="92.333px" viewBox="0 0 500 92.333" enable-background="new 0 0 500 92.333" xml:space="preserve">
<g>
	
		<linearGradient id="SVGID_1_" gradientUnits="userSpaceOnUse" x1="1.8608" y1="45.29" x2="48.1841" y2="45.29" gradientTransform="matrix(1 0 0 -1 8.5 68.333)">
		<stop  offset="0" style="stop-color:#FFFFFF"/>
		<stop  offset="1" style="stop-color:#000000"/>
	</linearGradient>
	<polygon fill="url(#SVGID_1_)" points="10.361,37.146 56.684,33.446 56.684,8.94 10.361,18.191 	"/>
	
		<linearGradient id="SVGID_2_" gradientUnits="userSpaceOnUse" x1="25.0229" y1="62.9165" x2="25.0229" y2="-18.9895" gradientTransform="matrix(1 0 0 -1 8.5 68.333)">
		<stop  offset="0.0452" style="stop-color:#F08400"/>
		<stop  offset="1" style="stop-color:#FBBA25"/>
	</linearGradient>
	<polygon fill="url(#SVGID_2_)" points="10.361,37.146 56.684,33.446 56.684,8.94 10.361,18.191 	"/>
	
		<linearGradient id="SVGID_3_" gradientUnits="userSpaceOnUse" x1="1.8608" y1="18.5181" x2="48.1841" y2="18.5181" gradientTransform="matrix(1 0 0 -1 8.5 68.333)">
		<stop  offset="0" style="stop-color:#FFFFFF"/>
		<stop  offset="1" style="stop-color:#000000"/>
	</linearGradient>
	<polygon fill="url(#SVGID_3_)" points="10.361,61.143 56.684,59.293 56.684,38.487 10.361,42.188 	"/>
	
		<linearGradient id="SVGID_4_" gradientUnits="userSpaceOnUse" x1="25.0229" y1="62.9175" x2="25.0229" y2="-18.9917" gradientTransform="matrix(1 0 0 -1 8.5 68.333)">
		<stop  offset="0.0452" style="stop-color:#F08400"/>
		<stop  offset="1" style="stop-color:#FBBA25"/>
	</linearGradient>
	<polygon fill="url(#SVGID_4_)" points="10.361,61.143 56.684,59.293 56.684,38.487 10.361,42.188 	"/>
	
		<linearGradient id="SVGID_5_" gradientUnits="userSpaceOnUse" x1="1.8608" y1="-5.063" x2="48.1841" y2="-5.063" gradientTransform="matrix(1 0 0 -1 8.5 68.333)">
		<stop  offset="0" style="stop-color:#FFFFFF"/>
		<stop  offset="1" style="stop-color:#000000"/>
	</linearGradient>
	<polygon fill="url(#SVGID_5_)" points="10.361,83.799 56.684,83.799 56.684,62.993 10.361,64.844 	"/>
	
		<linearGradient id="SVGID_6_" gradientUnits="userSpaceOnUse" x1="25.0229" y1="62.9165" x2="25.0229" y2="-18.9909" gradientTransform="matrix(1 0 0 -1 8.5 68.333)">
		<stop  offset="0.0452" style="stop-color:#F08400"/>
		<stop  offset="1" style="stop-color:#FBBA25"/>
	</linearGradient>
	<polygon fill="url(#SVGID_6_)" points="10.361,83.799 56.684,83.799 56.684,62.993 10.361,64.844 	"/>
	
		<linearGradient id="SVGID_7_" gradientUnits="userSpaceOnUse" x1="52.5601" y1="45.29" x2="114.3159" y2="45.29" gradientTransform="matrix(1 0 0 -1 8.5 68.333)">
		<stop  offset="0" style="stop-color:#FFFFFF"/>
		<stop  offset="1" style="stop-color:#000000"/>
	</linearGradient>
	<path fill="url(#SVGID_7_)" d="M61.06,33.446l61.756,3.7V16.341L61.06,8.94V33.446z M66.343,17.667l22.292,1.85v7.052l-22.292-1.85
		V17.667z"/>
	
		<linearGradient id="SVGID_8_" gradientUnits="userSpaceOnUse" x1="83.4385" y1="62.9165" x2="83.4385" y2="-18.9895" gradientTransform="matrix(1 0 0 -1 8.5 68.333)">
		<stop  offset="0.0452" style="stop-color:#F08400"/>
		<stop  offset="1" style="stop-color:#FBBA25"/>
	</linearGradient>
	<path fill="url(#SVGID_8_)" d="M61.06,33.446l61.756,3.7V16.341L61.06,8.94V33.446z M66.343,17.667l22.292,1.85v7.052l-22.292-1.85
		V17.667z"/>
	
		<linearGradient id="SVGID_9_" gradientUnits="userSpaceOnUse" x1="52.5601" y1="18.5176" x2="114.3159" y2="18.5176" gradientTransform="matrix(1 0 0 -1 8.5 68.333)">
		<stop  offset="0" style="stop-color:#FFFFFF"/>
		<stop  offset="1" style="stop-color:#000000"/>
	</linearGradient>
	<path fill="url(#SVGID_9_)" d="M61.06,59.293l61.756,1.85V42.188l-61.756-3.7V59.293z M66.343,45.364l22.292,1.1v7.092
		l-22.292-0.464V45.364z"/>
	
		<linearGradient id="SVGID_10_" gradientUnits="userSpaceOnUse" x1="83.4385" y1="62.9175" x2="83.4385" y2="-18.9917" gradientTransform="matrix(1 0 0 -1 8.5 68.333)">
		<stop  offset="0.0452" style="stop-color:#F08400"/>
		<stop  offset="1" style="stop-color:#FBBA25"/>
	</linearGradient>
	<path fill="url(#SVGID_10_)" d="M61.06,59.293l61.756,1.85V42.188l-61.756-3.7V59.293z M66.343,45.364l22.292,1.1v7.092
		l-22.292-0.464V45.364z"/>
	
		<linearGradient id="SVGID_11_" gradientUnits="userSpaceOnUse" x1="52.5601" y1="-5.064" x2="114.3159" y2="-5.064" gradientTransform="matrix(1 0 0 -1 8.5 68.333)">
		<stop  offset="0" style="stop-color:#FFFFFF"/>
		<stop  offset="1" style="stop-color:#000000"/>
	</linearGradient>
	<path fill="url(#SVGID_11_)" d="M61.06,83.799h61.756V64.844l-61.756-1.85V83.799z M66.343,69.87l22.292,0.647v6.405H66.343V69.87z
		"/>
	
		<linearGradient id="SVGID_12_" gradientUnits="userSpaceOnUse" x1="83.4385" y1="62.9165" x2="83.4385" y2="-18.9909" gradientTransform="matrix(1 0 0 -1 8.5 68.333)">
		<stop  offset="0.0452" style="stop-color:#F08400"/>
		<stop  offset="1" style="stop-color:#FBBA25"/>
	</linearGradient>
	<path fill="url(#SVGID_12_)" d="M61.06,83.799h61.756V64.844l-61.756-1.85V83.799z M66.343,69.87l22.292,0.647v6.405H66.343V69.87z
		"/>
</g>
<rect x="157.093" y="31.227" fill="none" width="342.907" height="50.572"/>
<g enable-background="new    ">
	<path fill="#5A5A5A" d="M190.697,48.665c0,2.452-0.413,4.707-1.237,6.766c-0.825,2.058-1.989,3.827-3.492,5.308
		c-1.503,1.479-3.312,2.637-5.423,3.469c-2.113,0.833-4.456,1.249-7.031,1.249h-12.905V31.897h12.905
		c2.575,0,4.918,0.417,7.031,1.249c2.112,0.833,3.92,1.993,5.423,3.48c1.503,1.488,2.667,3.258,3.492,5.309
		C190.285,43.986,190.697,46.229,190.697,48.665z M183.574,48.665c0-1.758-0.231-3.338-0.694-4.741
		c-0.463-1.402-1.126-2.59-1.989-3.562c-0.864-0.971-1.916-1.719-3.157-2.243c-1.241-0.524-2.648-0.786-4.221-0.786h-5.921v22.688
		h5.921c1.572,0,2.979-0.259,4.221-0.775c1.241-0.517,2.293-1.264,3.157-2.243c0.863-0.979,1.526-2.17,1.989-3.573
		C183.343,52.026,183.574,50.438,183.574,48.665z"/>
	<path fill="#5A5A5A" d="M204.99,41.241c1.526,0,2.933,0.243,4.221,0.729c1.287,0.485,2.397,1.191,3.331,2.116
		c0.933,0.925,1.657,2.062,2.174,3.411c0.517,1.35,0.775,2.888,0.775,4.614c0,0.479-0.023,0.871-0.069,1.18s-0.124,0.555-0.231,0.74
		c-0.108,0.185-0.254,0.312-0.439,0.381c-0.185,0.07-0.424,0.104-0.717,0.104h-14.316c0.2,2.236,0.836,3.87,1.908,4.903
		s2.479,1.55,4.221,1.55c0.878,0,1.638-0.104,2.278-0.312c0.64-0.208,1.203-0.439,1.688-0.694c0.485-0.254,0.925-0.485,1.318-0.693
		c0.393-0.208,0.782-0.312,1.168-0.312c0.493,0,0.878,0.186,1.156,0.556l1.85,2.312c-0.679,0.786-1.426,1.438-2.243,1.954
		c-0.817,0.517-1.666,0.925-2.544,1.226c-0.878,0.301-1.766,0.509-2.66,0.625c-0.894,0.115-1.757,0.173-2.59,0.173
		c-1.665,0-3.219-0.273-4.66-0.82c-1.442-0.548-2.698-1.357-3.77-2.429c-1.072-1.071-1.916-2.401-2.533-3.989
		s-0.925-3.431-0.925-5.528c0-1.618,0.266-3.146,0.798-4.579c0.532-1.434,1.299-2.683,2.301-3.746
		c1.002-1.064,2.22-1.908,3.654-2.533C201.567,41.553,203.186,41.241,204.99,41.241z M205.105,45.728
		c-1.526,0-2.722,0.436-3.585,1.307c-0.864,0.871-1.426,2.101-1.688,3.688h9.945c0-0.663-0.089-1.295-0.266-1.896
		s-0.459-1.133-0.844-1.596s-0.871-0.829-1.457-1.099S205.922,45.728,205.105,45.728z"/>
	<path fill="#5A5A5A" d="M226.776,34.834c0,0.54-0.108,1.041-0.324,1.503c-0.216,0.463-0.505,0.872-0.867,1.227
		s-0.786,0.632-1.272,0.832c-0.486,0.201-1.006,0.301-1.561,0.301c-0.524,0-1.021-0.1-1.492-0.301
		c-0.471-0.2-0.883-0.478-1.237-0.832c-0.355-0.354-0.636-0.764-0.844-1.227c-0.208-0.462-0.312-0.963-0.312-1.503
		c0-0.539,0.104-1.044,0.312-1.515s0.489-0.883,0.844-1.237c0.354-0.354,0.767-0.632,1.237-0.833c0.47-0.2,0.967-0.301,1.492-0.301
		c0.555,0,1.075,0.101,1.561,0.301c0.486,0.201,0.91,0.479,1.272,0.833s0.651,0.767,0.867,1.237S226.776,34.295,226.776,34.834z
		 M226.012,41.611v23.845h-6.383V41.611H226.012z"/>
	<path fill="#5A5A5A" d="M231.471,65.456V41.611h3.932c0.801,0,1.333,0.37,1.596,1.11l0.393,1.665
		c0.478-0.463,0.975-0.887,1.492-1.272c0.517-0.385,1.064-0.717,1.642-0.994s1.203-0.493,1.874-0.647
		c0.67-0.154,1.399-0.231,2.186-0.231c1.295,0,2.443,0.224,3.446,0.671s1.846,1.071,2.533,1.873
		c0.686,0.802,1.203,1.758,1.549,2.868c0.348,1.11,0.521,2.328,0.521,3.654v15.148h-6.36V50.307c0-1.326-0.309-2.355-0.925-3.088
		s-1.526-1.099-2.729-1.099c-0.91,0-1.754,0.197-2.533,0.59c-0.779,0.394-1.522,0.929-2.231,1.607v17.138H231.471z"/>
</g>
<g enable-background="new    ">
	<path fill="#5A5A5A" d="M275.414,37.495c-0.139,0.23-0.289,0.404-0.451,0.52c-0.162,0.116-0.358,0.174-0.59,0.174
		c-0.262,0-0.57-0.131-0.925-0.394c-0.354-0.262-0.798-0.551-1.33-0.867c-0.532-0.315-1.172-0.604-1.919-0.867
		c-0.748-0.262-1.654-0.393-2.719-0.393c-1.002,0-1.885,0.135-2.647,0.404s-1.403,0.636-1.919,1.099
		c-0.518,0.463-0.906,1.006-1.168,1.631c-0.264,0.624-0.394,1.299-0.394,2.023c0,0.925,0.228,1.692,0.683,2.301
		c0.454,0.609,1.055,1.13,1.803,1.562s1.597,0.806,2.545,1.121c0.948,0.316,1.92,0.645,2.914,0.983s1.966,0.721,2.914,1.145
		c0.948,0.425,1.796,0.96,2.544,1.607c0.747,0.647,1.349,1.442,1.804,2.383s0.683,2.097,0.683,3.469c0,1.449-0.247,2.81-0.74,4.082
		s-1.214,2.379-2.163,3.318c-0.947,0.941-2.111,1.682-3.492,2.221c-1.379,0.54-2.948,0.81-4.706,0.81
		c-2.159,0-4.116-0.39-5.874-1.168s-3.262-1.831-4.51-3.157l1.295-2.128c0.123-0.169,0.273-0.312,0.451-0.428
		c0.177-0.115,0.373-0.173,0.59-0.173c0.199,0,0.428,0.081,0.682,0.242c0.254,0.162,0.543,0.367,0.867,0.613
		c0.324,0.247,0.693,0.517,1.11,0.81s0.891,0.562,1.423,0.81c0.531,0.246,1.137,0.451,1.814,0.612
		c0.679,0.162,1.441,0.243,2.29,0.243c1.063,0,2.013-0.146,2.845-0.439c0.833-0.293,1.538-0.705,2.116-1.237s1.021-1.168,1.33-1.908
		c0.308-0.74,0.462-1.564,0.462-2.475c0-1.002-0.227-1.823-0.682-2.463s-1.053-1.176-1.793-1.607s-1.588-0.798-2.543-1.099
		c-0.957-0.301-1.928-0.609-2.914-0.925c-0.987-0.316-1.959-0.683-2.914-1.099c-0.957-0.417-1.805-0.956-2.545-1.619
		s-1.338-1.492-1.792-2.486c-0.455-0.994-0.683-2.224-0.683-3.688c0-1.172,0.228-2.305,0.683-3.4
		c0.454-1.095,1.118-2.065,1.989-2.914c0.871-0.848,1.942-1.526,3.215-2.035c1.271-0.509,2.732-0.763,4.383-0.763
		c1.85,0,3.534,0.293,5.053,0.879s2.856,1.434,4.013,2.544L275.414,37.495z"/>
	<path fill="#5A5A5A" d="M291.928,41.657c1.402,0,2.701,0.235,3.896,0.706s2.229,1.148,3.1,2.035s1.553,1.981,2.047,3.284
		c0.492,1.303,0.74,2.787,0.74,4.452c0,0.647-0.07,1.079-0.209,1.295s-0.4,0.324-0.786,0.324h-15.657
		c0.031,1.479,0.23,2.768,0.602,3.862c0.369,1.095,0.879,2.008,1.525,2.74c0.648,0.732,1.419,1.28,2.313,1.642
		c0.894,0.363,1.896,0.544,3.007,0.544c1.033,0,1.923-0.119,2.671-0.358c0.747-0.239,1.392-0.497,1.931-0.774
		c0.54-0.278,0.991-0.536,1.354-0.775c0.362-0.238,0.674-0.358,0.937-0.358c0.339,0,0.602,0.131,0.786,0.394l1.156,1.503
		c-0.508,0.617-1.117,1.152-1.826,1.607c-0.71,0.455-1.469,0.829-2.278,1.122s-1.646,0.513-2.51,0.659
		c-0.863,0.146-1.72,0.22-2.567,0.22c-1.619,0-3.11-0.274-4.475-0.821c-1.365-0.547-2.545-1.35-3.539-2.405s-1.77-2.363-2.324-3.92
		c-0.555-1.558-0.832-3.346-0.832-5.366c0-1.634,0.25-3.16,0.752-4.579c0.5-1.418,1.221-2.648,2.162-3.688
		c0.939-1.041,2.089-1.858,3.445-2.452C288.705,41.955,290.23,41.657,291.928,41.657z M292.02,44.687
		c-1.988,0-3.554,0.574-4.695,1.723c-1.141,1.149-1.85,2.741-2.127,4.776h12.812c0-0.956-0.135-1.831-0.404-2.625
		s-0.664-1.48-1.18-2.059c-0.517-0.578-1.145-1.025-1.885-1.342C293.801,44.845,292.96,44.687,292.02,44.687z"/>
	<path fill="#5A5A5A" d="M306.752,65.456V42.027h2.359c0.447,0,0.756,0.085,0.925,0.255c0.17,0.17,0.285,0.463,0.347,0.879
		l0.255,3.562c0.74-1.604,1.653-2.856,2.741-3.758c1.086-0.902,2.408-1.354,3.966-1.354c0.493,0,0.968,0.055,1.423,0.162
		c0.454,0.107,0.859,0.277,1.214,0.509l-0.301,3.076c-0.093,0.386-0.323,0.578-0.694,0.578c-0.216,0-0.531-0.047-0.947-0.139
		c-0.417-0.093-0.887-0.139-1.411-0.139c-0.74,0-1.403,0.111-1.989,0.335s-1.106,0.548-1.561,0.972
		c-0.455,0.424-0.86,0.944-1.215,1.561c-0.354,0.617-0.679,1.326-0.971,2.128v14.802H306.752z"/>
	<path fill="#5A5A5A" d="M320.859,42.027h3.354c0.34,0,0.617,0.085,0.834,0.255c0.215,0.17,0.361,0.37,0.439,0.602l5.943,15.079
		c0.185,0.57,0.347,1.125,0.485,1.665s0.27,1.079,0.394,1.619c0.123-0.54,0.254-1.079,0.393-1.619s0.309-1.095,0.51-1.665
		l6.013-15.079c0.093-0.247,0.246-0.451,0.462-0.613c0.217-0.162,0.471-0.243,0.764-0.243h3.215l-9.552,23.429h-3.7L320.859,42.027z
		"/>
	<path fill="#5A5A5A" d="M356.407,41.657c1.403,0,2.702,0.235,3.897,0.706c1.194,0.471,2.228,1.148,3.099,2.035
		s1.554,1.981,2.047,3.284s0.74,2.787,0.74,4.452c0,0.647-0.069,1.079-0.208,1.295s-0.401,0.324-0.787,0.324h-15.656
		c0.03,1.479,0.23,2.768,0.601,3.862s0.879,2.008,1.526,2.74c0.648,0.732,1.418,1.28,2.312,1.642
		c0.895,0.363,1.896,0.544,3.007,0.544c1.033,0,1.923-0.119,2.671-0.358s1.392-0.497,1.932-0.774
		c0.539-0.278,0.99-0.536,1.354-0.775c0.361-0.238,0.674-0.358,0.936-0.358c0.34,0,0.602,0.131,0.787,0.394l1.156,1.503
		c-0.509,0.617-1.118,1.152-1.827,1.607c-0.71,0.455-1.469,0.829-2.278,1.122c-0.809,0.293-1.646,0.513-2.51,0.659
		c-0.863,0.146-1.719,0.22-2.566,0.22c-1.619,0-3.111-0.274-4.475-0.821c-1.365-0.547-2.545-1.35-3.539-2.405
		s-1.77-2.363-2.324-3.92c-0.555-1.558-0.833-3.346-0.833-5.366c0-1.634,0.251-3.16,0.752-4.579
		c0.501-1.418,1.222-2.648,2.162-3.688c0.94-1.041,2.089-1.858,3.446-2.452C353.185,41.955,354.711,41.657,356.407,41.657z
		 M356.5,44.687c-1.989,0-3.555,0.574-4.695,1.723c-1.141,1.149-1.85,2.741-2.127,4.776h12.812c0-0.956-0.135-1.831-0.405-2.625
		c-0.27-0.794-0.663-1.48-1.179-2.059c-0.518-0.578-1.146-1.025-1.885-1.342C358.281,44.845,357.439,44.687,356.5,44.687z"/>
	<path fill="#5A5A5A" d="M371.232,65.456V42.027h2.359c0.446,0,0.755,0.085,0.924,0.255c0.17,0.17,0.285,0.463,0.348,0.879
		l0.254,3.562c0.74-1.604,1.654-2.856,2.741-3.758c1.087-0.902,2.409-1.354,3.966-1.354c0.494,0,0.968,0.055,1.423,0.162
		c0.454,0.107,0.859,0.277,1.214,0.509l-0.301,3.076c-0.092,0.386-0.323,0.578-0.693,0.578c-0.217,0-0.531-0.047-0.948-0.139
		c-0.417-0.093-0.887-0.139-1.411-0.139c-0.74,0-1.402,0.111-1.988,0.335s-1.107,0.548-1.562,0.972
		c-0.455,0.424-0.86,0.944-1.214,1.561c-0.355,0.617-0.68,1.326-0.972,2.128v14.802H371.232z"/>
	<path fill="#5A5A5A" d="M415.476,65.456h-4.487V50.376h-17.877v15.079h-4.486V32.314h4.486v14.778h17.877V32.314h4.487V65.456z"/>
	<path fill="#5A5A5A" d="M432.128,41.657c1.712,0,3.253,0.286,4.626,0.856c1.371,0.57,2.543,1.38,3.515,2.428
		c0.972,1.049,1.716,2.317,2.231,3.805c0.518,1.488,0.775,3.149,0.775,4.984c0,1.85-0.258,3.516-0.775,4.995
		c-0.516,1.48-1.26,2.745-2.231,3.793c-0.972,1.049-2.144,1.854-3.515,2.417c-1.373,0.562-2.914,0.845-4.626,0.845
		c-1.728,0-3.28-0.282-4.661-0.845c-1.379-0.562-2.555-1.368-3.526-2.417c-0.972-1.048-1.716-2.312-2.231-3.793
		c-0.518-1.479-0.775-3.146-0.775-4.995c0-1.835,0.258-3.496,0.775-4.984c0.516-1.487,1.26-2.756,2.231-3.805
		c0.972-1.048,2.147-1.857,3.526-2.428C428.848,41.943,430.4,41.657,432.128,41.657z M432.128,62.565
		c2.312,0,4.039-0.775,5.181-2.324c1.141-1.55,1.711-3.713,1.711-6.487c0-2.791-0.57-4.965-1.711-6.522
		c-1.142-1.558-2.868-2.336-5.181-2.336c-1.172,0-2.194,0.2-3.064,0.602c-0.872,0.401-1.597,0.979-2.175,1.734
		c-0.578,0.756-1.01,1.685-1.295,2.787s-0.428,2.348-0.428,3.735c0,2.774,0.574,4.938,1.723,6.487
		C428.037,61.79,429.783,62.565,432.128,62.565z"/>
	<path fill="#5A5A5A" d="M462.123,45.889c-0.185,0.34-0.47,0.509-0.855,0.509c-0.23,0-0.493-0.084-0.786-0.254
		s-0.651-0.358-1.075-0.566s-0.93-0.401-1.516-0.578c-0.586-0.178-1.279-0.267-2.081-0.267c-0.694,0-1.317,0.089-1.873,0.267
		c-0.556,0.177-1.029,0.42-1.423,0.729c-0.393,0.309-0.693,0.667-0.901,1.075s-0.312,0.852-0.312,1.33
		c0,0.601,0.173,1.103,0.521,1.503c0.347,0.401,0.806,0.748,1.376,1.041s1.218,0.551,1.942,0.774s1.469,0.463,2.232,0.717
		c0.764,0.255,1.507,0.536,2.231,0.845s1.372,0.693,1.942,1.156c0.57,0.462,1.029,1.029,1.377,1.699
		c0.347,0.671,0.52,1.477,0.52,2.417c0,1.08-0.192,2.078-0.578,2.995c-0.385,0.918-0.955,1.712-1.711,2.383
		c-0.756,0.67-1.681,1.198-2.775,1.584c-1.095,0.385-2.359,0.578-3.793,0.578c-1.635,0-3.115-0.266-4.44-0.798
		c-1.326-0.532-2.452-1.214-3.377-2.047l0.972-1.572c0.123-0.2,0.27-0.354,0.439-0.463c0.17-0.107,0.385-0.162,0.647-0.162
		c0.277,0,0.57,0.108,0.879,0.324c0.308,0.216,0.683,0.455,1.122,0.717s0.975,0.501,1.607,0.717
		c0.631,0.216,1.418,0.324,2.358,0.324c0.802,0,1.503-0.104,2.104-0.312s1.103-0.489,1.504-0.845c0.4-0.354,0.697-0.763,0.891-1.226
		c0.191-0.462,0.289-0.956,0.289-1.479c0-0.648-0.174-1.184-0.521-1.607c-0.346-0.425-0.805-0.787-1.375-1.088
		c-0.571-0.3-1.223-0.562-1.955-0.786c-0.732-0.223-1.48-0.458-2.243-0.705c-0.763-0.246-1.511-0.528-2.243-0.844
		c-0.732-0.316-1.385-0.714-1.955-1.191s-1.028-1.067-1.375-1.77c-0.348-0.701-0.521-1.553-0.521-2.556
		c0-0.894,0.186-1.754,0.556-2.578c0.37-0.825,0.909-1.55,1.619-2.175c0.709-0.624,1.58-1.121,2.613-1.491
		c1.032-0.37,2.212-0.556,3.538-0.556c1.542,0,2.926,0.243,4.152,0.729c1.225,0.486,2.285,1.153,3.18,2.001L462.123,45.889z"/>
	<path fill="#5A5A5A" d="M475.699,65.826c-1.85,0-3.271-0.517-4.267-1.55c-0.994-1.032-1.491-2.521-1.491-4.464V45.473h-2.822
		c-0.246,0-0.455-0.073-0.624-0.22c-0.17-0.146-0.255-0.374-0.255-0.683v-1.642l3.84-0.485l0.947-7.239
		c0.047-0.231,0.15-0.42,0.312-0.566s0.374-0.22,0.637-0.22h2.081v8.071h6.776v2.983h-6.776v14.062c0,0.987,0.239,1.72,0.718,2.197
		c0.477,0.479,1.094,0.717,1.85,0.717c0.432,0,0.805-0.058,1.121-0.173c0.316-0.116,0.59-0.243,0.822-0.382
		c0.23-0.139,0.428-0.266,0.589-0.382c0.162-0.115,0.305-0.174,0.429-0.174c0.215,0,0.408,0.132,0.578,0.394l1.202,1.966
		c-0.71,0.663-1.565,1.184-2.567,1.562C477.797,65.636,476.764,65.826,475.699,65.826z"/>
</g>
</svg>
